<svg id="Layer_1" data-name="Layer 1" xmlns="http://www.w3.org/2000/svg" xmlns:xlink="http://www.w3.org/1999/xlink" viewBox="0 0 307.56 249.98"><defs><style>.cls-1{fill:none;}.cls-2{fill:#c1272d;}.cls-3{fill:#00e969;}.cls-4{fill:url(#linear-gradient);}.cls-5{fill:url(#linear-gradient-2);}.cls-6{fill:url(#New_Gradient_Swatch_3);}</style><linearGradient id="linear-gradient" x1="234.33" y1="361.71" x2="234.33" y2="166.55" gradientTransform="translate(551.23 -110.09) rotate(90)" gradientUnits="userSpaceOnUse"><stop offset="0" stop-color="#4a1682"/><stop offset="0.5" stop-color="#b10b52"/><stop offset="1" stop-color="#e6374f"/></linearGradient><linearGradient id="linear-gradient-2" x1="115.86" y1="150.25" x2="259.81" y2="399.57" gradientTransform="translate(27 -51)" gradientUnits="userSpaceOnUse"><stop offset="0" stop-color="#e6374f"/><stop offset="0.5" stop-color="#b10b52"/><stop offset="1" stop-color="#4a1682"/></linearGradient><linearGradient id="New_Gradient_Swatch_3" x1="153.67" y1="147.64" x2="377.99" y2="147.64" gradientTransform="translate(503.23 -54.09) rotate(90)" xlink:href="#linear-gradient-2"/></defs><title>Cristal-Logo2</title><path class="cls-1" d="M370.23,148.91h0" transform="translate(-124.88 -99.58)"/><path class="cls-2" d="M278.23,291.91Z" transform="translate(-124.88 -99.58)"/><path class="cls-3" d="M279.23,291.91Z" transform="translate(-124.88 -99.58)"/><path class="cls-4" d="M370.24,148.9h-151l-29.7-49.32h194.6C388,127.85,370.73,148.33,370.24,148.9Z" transform="translate(-124.88 -99.58)"/><path class="cls-5" d="M258.6,338.6,128.69,136.3a23.84,23.84,0,0,1,20.06-36.72h2.49l84.81,125.78,42.61,66.36.08-.13c1.53,8.19,7.44,27.6,29.42,32.31l-9.44,14.7A23.84,23.84,0,0,1,258.6,338.6Z" transform="translate(-124.88 -99.58)"/><path class="cls-6" d="M308.16,323.9c-22-4.71-27.89-24.12-29.42-32.31l2.89-4.49,88.74-138.2h-.13c.49-.57,17.71-21.05,13.88-49.32h24.45a23.84,23.84,0,0,1,20.05,36.72L318,308.57l-7.57,11.78Z" transform="translate(-124.88 -99.58)"/></svg>