<svg id="Layer_1" data-name="Layer 1" xmlns="http://www.w3.org/2000/svg" xmlns:xlink="http://www.w3.org/1999/xlink" viewBox="0 0 170.82 59.73"><defs><linearGradient id="linear-gradient" x1="182.25" y1="161.65" x2="182.25" y2="115.02" gradientTransform="translate(186.23 -171.09) rotate(90)" gradientUnits="userSpaceOnUse"><stop offset="0" stop-color="#4a1682"/><stop offset="0.5" stop-color="#b10b52"/><stop offset="1" stop-color="#e6374f"/></linearGradient><linearGradient id="linear-gradient-2" x1="-13.57" y1="56.19" x2="20.82" y2="115.76" gradientTransform="translate(27 -51)" gradientUnits="userSpaceOnUse"><stop offset="0" stop-color="#494ac6"/><stop offset="0.25" stop-color="#3dbdcf"/><stop offset="0.5" stop-color="#01d5a0"/><stop offset="0.75" stop-color="#77e50d"/><stop offset="1" stop-color="#a9df3b"/><stop offset="1" stop-color="#ecff10"/></linearGradient><linearGradient id="linear-gradient-3" x1="120.36" y1="73.97" x2="173.96" y2="73.97" gradientTransform="translate(138.23 -115.09) rotate(90)" gradientUnits="userSpaceOnUse"><stop offset="0" stop-color="#e6374f"/><stop offset="0.3" stop-color="#fc0"/><stop offset="0.66" stop-color="#ecff10"/><stop offset="1" stop-color="#a9df3b"/></linearGradient></defs><title>Cristal-Logo-typo</title><path d="M45.77,51.23" transform="translate(-9.13 -5.27)" style="fill:#c1272d"/><path d="M46,51.23" transform="translate(-9.13 -5.27)" style="fill:#00e969"/><path d="M67.76,17.06H31.67L24.58,5.27H71.07A16.15,16.15,0,0,1,67.76,17.06Z" transform="translate(-9.13 -5.27)" style="fill:url(#linear-gradient)"/><path d="M41.08,62.38,10,14a5.7,5.7,0,0,1,4.79-8.77h.6L35.69,35.32,45.88,51.18v0c.37,2,1.78,6.59,7,7.72l-2.25,3.51A5.7,5.7,0,0,1,41.08,62.38Z" transform="translate(-9.13 -5.27)" style="fill:url(#linear-gradient-2)"/><path d="M52.92,58.87c-5.25-1.13-6.66-5.76-7-7.72l.69-1.07,21.21-33h0A16.15,16.15,0,0,0,71.07,5.27h5.85A5.7,5.7,0,0,1,81.71,14L55.28,55.21,53.47,58Z" transform="translate(-9.13 -5.27)" style="fill:url(#linear-gradient-3)"/><text transform="translate(73.04 46.13)" style="font-size:48px;fill:#494ac6;font-family:OstrichSans-Medium, Ostrich Sans;font-weight:500">C<tspan x="16.51" y="0" style="fill:#01d5a0">r</tspan><tspan x="33.22" y="0" style="fill:#77e50d">i</tspan><tspan x="38.45" y="0" style="fill:#a9df3b;letter-spacing:-0.030008951822916668em">s</tspan><tspan x="53.71" y="0" style="fill:#fc0;letter-spacing:-0.10996500651041667em">t</tspan><tspan x="65.28" y="0" style="fill:#e6374f;letter-spacing:-0.000020345052083333332em">a</tspan><tspan x="84.1" y="0" style="fill:#4a1682">l</tspan></text></svg>