<svg id="Layer_1" data-name="Layer 1" xmlns="http://www.w3.org/2000/svg" xmlns:xlink="http://www.w3.org/1999/xlink" viewBox="0 0 396.98 402.01"><defs><linearGradient id="linear-gradient" x1="182.23" y1="255.66" x2="168.14" y2="515.86" gradientUnits="userSpaceOnUse"><stop offset="0.01"/><stop offset="0.13" stop-opacity="0.69"/><stop offset="1" stop-opacity="0"/></linearGradient><linearGradient id="linear-gradient-2" x1="208.21" y1="82.84" x2="264.57" y2="151.72" xlink:href="#linear-gradient"/><linearGradient id="linear-gradient-3" x1="186.16" y1="121.33" x2="288.31" y2="288.29" xlink:href="#linear-gradient"/><linearGradient id="linear-gradient-4" x1="190.66" y1="131.92" x2="284.4" y2="285.13" xlink:href="#linear-gradient"/><linearGradient id="linear-gradient-5" x1="275.65" y1="180.37" x2="161.52" y2="165.81" xlink:href="#linear-gradient"/><linearGradient id="linear-gradient-6" x1="133.61" y1="218.73" x2="213.76" y2="132" xlink:href="#linear-gradient"/><linearGradient id="linear-gradient-7" x1="178.67" y1="145.9" x2="188.06" y2="55.25" xlink:href="#linear-gradient"/><linearGradient id="linear-gradient-8" x1="187.89" y1="61.13" x2="184.29" y2="93.07" xlink:href="#linear-gradient"/><linearGradient id="linear-gradient-9" x1="187.96" y1="79.66" x2="190.82" y2="181.5" xlink:href="#linear-gradient"/></defs><title>Super Dad</title><path d="M42.55,375.16s53.54,46,170,25.36S368.49,347.92,377,279.35s6.57-112.72,22.54-143.72-33.81-109-109.9-107.08-49.78,19.72-102.39-9.4S50.06,2.25,47.24,57.67,38.79,268.08,12.49,306.59,42.55,375.16,42.55,375.16Z" transform="translate(-5.49 -3.85)" fill="#00bfa6" opacity="0.41"/><ellipse cx="176.07" cy="369.43" rx="109.9" ry="15.03" fill="url(#linear-gradient)"/><path d="M165.78,115.57A24.95,24.95,0,0,1,173,71.64a38,38,0,0,1,12.25-1.38c27.16.62,53.46,15.28,80.29,11a33.46,33.46,0,0,1,7.1-.75,8.19,8.19,0,0,1,6.26,3,7.55,7.55,0,0,1,.71,6.8,15.92,15.92,0,0,1-4,5.82,37.07,37.07,0,0,1-10.88,7.63c-2.64,1.21-5.45,2.12-7.88,3.74-3.24,2.15-5.57,5.4-8.45,8-7.39,6.66-18,8.68-27.92,7.87s-19.42-4.13-29-7-19.47-5.19-29.35-4" transform="translate(-5.49 -3.85)" fill="#00bfa6"/><path d="M165.78,115.57A24.95,24.95,0,0,1,173,71.64a38,38,0,0,1,12.25-1.38c27.16.62,53.46,15.28,80.29,11a33.46,33.46,0,0,1,7.1-.75,8.19,8.19,0,0,1,6.26,3,7.55,7.55,0,0,1,.71,6.8,15.92,15.92,0,0,1-4,5.82,37.07,37.07,0,0,1-10.88,7.63c-2.64,1.21-5.45,2.12-7.88,3.74-3.24,2.15-5.57,5.4-8.45,8-7.39,6.66-18,8.68-27.92,7.87s-19.42-4.13-29-7-19.47-5.19-29.35-4" transform="translate(-5.49 -3.85)" fill="url(#linear-gradient-2)"/><path d="M183.37,132.31c-10.69-1.49-21.09,5.25-27.47,13.95s-9.67,19.2-13.69,29.21a200.07,200.07,0,0,1-16.47,32.27c-4.14,6.57-8.75,13.08-10.54,20.63-1.7,7.16-.72,14.69.92,21.86,2.19,9.53,5.61,18.94,11.53,26.72s14.58,13.8,24.28,15c10.69,1.37,21.17-3,31.75-5.12,21.92-4.32,44.39,1.34,66.58,3.94,11.11,1.3,22.55,1.81,33.34-1.18s20.93-9.94,25.47-20.17c4.45-10,3-21.54,4-32.46,1.17-13.15,6.12-26.14,15-35.9,7-7.67,16.12-13.13,23.17-20.74S363.15,161.51,359,152c-17.89,2.4-36.27,4.78-53.8.53-10.3-2.5-19.9-7.21-29.84-10.87a154.67,154.67,0,0,0-32.53-8.13c-10.08-1.38-20.65-1.71-30.13,2-5.09,2-10.83.65-16.23-.18C192.2,134.73,187.6,132.91,183.37,132.31Z" transform="translate(-5.49 -3.85)" fill="#00bfa6"/><path d="M183.37,132.31c-10.69-1.49-21.09,5.25-27.47,13.95s-9.67,19.2-13.69,29.21a200.07,200.07,0,0,1-16.47,32.27c-4.14,6.57-8.75,13.08-10.54,20.63-1.7,7.16-.72,14.69.92,21.86,2.19,9.53,5.61,18.94,11.53,26.72s14.58,13.8,24.28,15c10.69,1.37,21.17-3,31.75-5.12,21.92-4.32,44.39,1.34,66.58,3.94,11.11,1.3,22.55,1.81,33.34-1.18s20.93-9.94,25.47-20.17c4.45-10,3-21.54,4-32.46,1.17-13.15,6.12-26.14,15-35.9,7-7.67,16.12-13.13,23.17-20.74S363.15,161.51,359,152c-17.89,2.4-36.27,4.78-53.8.53-10.3-2.5-19.9-7.21-29.84-10.87a154.67,154.67,0,0,0-32.53-8.13c-10.08-1.38-20.65-1.71-30.13,2-5.09,2-10.83.65-16.23-.18C192.2,134.73,187.6,132.91,183.37,132.31Z" transform="translate(-5.49 -3.85)" fill="url(#linear-gradient-3)"/><path d="M188.1,142c-9.8-1.37-19.35,4.82-25.2,12.8s-8.88,17.62-12.56,26.8a184,184,0,0,1-15.12,29.62c-3.8,6-8,12-9.67,18.92-1.56,6.57-.66,13.48.85,20.06,2,8.74,5.15,17.38,10.58,24.52s13.38,12.67,22.27,13.8c9.82,1.26,19.43-2.78,29.14-4.7,20.11-4,40.73,1.23,61.09,3.62,10.2,1.19,20.7,1.66,30.6-1.08s19.2-9.13,23.37-18.52c4.08-9.2,2.78-19.76,3.67-29.78,1.07-12.07,5.61-24,13.77-32.94,6.41-7,14.78-12.05,21.26-19s10.92-17.3,7.07-26c-16.41,2.21-33.27,4.4-49.36.49-9.45-2.29-18.26-6.61-27.38-10a142.12,142.12,0,0,0-29.85-7.45c-9.25-1.27-18.95-1.57-27.64,1.85-4.67,1.83-9.94.6-14.9-.17C196.21,144.22,192,142.55,188.1,142Z" transform="translate(-5.49 -3.85)" fill="url(#linear-gradient-4)"/><path d="M162.1,136.67c-5.07,1.08-9.07,4.86-12.78,8.47l-17.85,17.38c-1.91,1.86-3.88,3.81-4.73,6.33-1.1,3.27-.1,6.87,1.33,10,1.51,3.29,3.74,6.54,7.14,7.77,2.27.82,4.77.62,7.17.42l23.27-2,1.87,36.71a4.81,4.81,0,0,0,1,3.21,4.64,4.64,0,0,0,2.2,1,85.47,85.47,0,0,0,34.8,1.85,7.78,7.78,0,0,0,3.84-1.35c1.34-1.11,1.81-2.93,2.17-4.63a120.61,120.61,0,0,0,2.3-33.48c4.93,6.23,8.24-7.27,15.68-4.54,3.57,1.31,7.28,2.57,11.07,2.31s7.7-2.43,8.86-6-.59-7.38-2.47-10.62C240,157.55,228.56,148,217.26,140c-1.06-3.32-4.12-.11-7.51-.93-1.14-.28-3.84,4.14-5,4.07-2-.14,2,3.89,0,3.75C192.53,138.5,176.6,133.6,162.1,136.67Z" transform="translate(-5.49 -3.85)" fill="#00bfa6"/><path d="M200.58,161.93q.38,10.5.74,21a27.31,27.31,0,0,0,1.27,8.69c1,2.75,3.19,5.25,6,5.92a4.61,4.61,0,0,0,4.15-.85c1.17-1.08,1.44-2.79,1.55-4.37.47-6.41-.5-12.91.61-19.23.35-2,1-4.17,2.76-5.27,2.17-1.39,5-.57,7.48.11a53.14,53.14,0,0,0,14.74,1.87c-2.83-4-8.43-4.8-12.54-7.51-6-4-8.71-12-15.26-15a24.16,24.16,0,0,0-6.24-1.6c-2.84-.46-13.22-1.62-11.83,4.15.52,2.14,3.43,2.75,4.68,4.43C200.36,156.46,200.48,159.33,200.58,161.93Z" transform="translate(-5.49 -3.85)" fill="url(#linear-gradient-5)"/><path d="M143.28,167.47a30.14,30.14,0,0,1,21.84-16.54,5.09,5.09,0,0,1,3.41.29c1.36.79,1.78,2.52,2.06,4.07,3.3,18.47,4.31,37.27,4.45,56a13.18,13.18,0,0,1-.88,5.93c-.89,1.81-2.93,3.23-4.88,2.72a4.67,4.67,0,0,1-3.08-4,18.43,18.43,0,0,1,.34-5.28c1.6-11.59-2.35-23-3-34.47-.19-3.34.14-7.87-3.9-8.9C158.36,167,143.37,167.27,143.28,167.47Z" transform="translate(-5.49 -3.85)" fill="url(#linear-gradient-6)"/><path d="M238.24,31.47a2.15,2.15,0,0,0,.29-.94,2.79,2.79,0,0,0-.4-1.13c-1-2-.71-4.42-.22-6.62a3.68,3.68,0,0,1,.85-1.89,1.37,1.37,0,0,1,1.88-.14c-.25-1.23,1.07-2.31,2.32-2.32a6.46,6.46,0,0,1,3.41,1.41c1.58,1,3.32,2.36,3.43,4.25a6.09,6.09,0,0,1-.87,3,18.6,18.6,0,0,1-2.86,4.67c-.84.91-1.87,1.66-2.64,2.65a13.1,13.1,0,0,0-1.73,3.47l-1.16,3a4.38,4.38,0,0,1-.88,1.6c-1.81,1.77-5.48-.35-5.74-2.58-.14-1.27,1-2.47,1.59-3.47A49.81,49.81,0,0,0,238.24,31.47Z" transform="translate(-5.49 -3.85)" fill="#f3bd8f"/><path d="M140.42,33.82a2.13,2.13,0,0,1-.28-.94,2.72,2.72,0,0,1,.39-1.13c1-2,.72-4.42.22-6.62a3.67,3.67,0,0,0-.84-1.89,1.38,1.38,0,0,0-1.88-.15c.24-1.22-1.08-2.3-2.33-2.31a6.41,6.41,0,0,0-3.41,1.41c-1.57,1-3.31,2.36-3.42,4.24a6.14,6.14,0,0,0,.86,3,18.65,18.65,0,0,0,2.86,4.66c.85.92,1.88,1.67,2.64,2.66A12.81,12.81,0,0,1,137,40.19l1.16,3a4.26,4.26,0,0,0,.89,1.6c1.8,1.77,5.48-.35,5.73-2.58.15-1.28-1-2.47-1.59-3.47A53.17,53.17,0,0,1,140.42,33.82Z" transform="translate(-5.49 -3.85)" fill="#f3bd8f"/><path d="M177.51,73.69c-12-5-19.71-16.5-26.68-27.44a18.05,18.05,0,0,0-3.72-4.64,6.16,6.16,0,0,0-5.57-1.36c-2.4.78-3.75,3.46-3.78,6s1,4.92,2,7.23c4,9.42,8.1,18.89,13.66,27.5a65.7,65.7,0,0,1,4.42,7.26c1.81,3.82,2.57,8,3.3,12.23q1.3,7.41,2.57,14.83c1,5.73,2.15,11.88,6.34,15.91,4.94,4.75,12.52,5.1,19.38,5a20.42,20.42,0,0,0,7.9-1.17c3.85-1.67,6.33-5.46,8-9.28,6-13.23,5.44-28.42,9.11-42.46s19.07-22.53,25.07-35.76a7.61,7.61,0,0,0,.9-3.23c-.05-3.23-4.06-5.17-7.18-4.38s-5.46,3.34-7.59,5.77L208.78,64.91c-1.94,2.21-4,4.48-6.65,5.67a20.37,20.37,0,0,1-6.9,1.32C189.41,72.33,182.9,75.94,177.51,73.69Z" transform="translate(-5.49 -3.85)" fill="#00bfa6"/><path d="M177.51,73.69c-12-5-19.71-16.5-26.68-27.44a18.05,18.05,0,0,0-3.72-4.64,6.16,6.16,0,0,0-5.57-1.36c-2.4.78-3.75,3.46-3.78,6s1,4.92,2,7.23c4,9.42,8.1,18.89,13.66,27.5a65.7,65.7,0,0,1,4.42,7.26c1.81,3.82,2.57,8,3.3,12.23q1.3,7.41,2.57,14.83c1,5.73,2.15,11.88,6.34,15.91,4.94,4.75,12.52,5.1,19.38,5a20.42,20.42,0,0,0,7.9-1.17c3.85-1.67,6.33-5.46,8-9.28,6-13.23,5.44-28.42,9.11-42.46s19.07-22.53,25.07-35.76a7.61,7.61,0,0,0,.9-3.23c-.05-3.23-4.06-5.17-7.18-4.38s-5.46,3.34-7.59,5.77L208.78,64.91c-1.94,2.21-4,4.48-6.65,5.67a20.37,20.37,0,0,1-6.9,1.32C189.41,72.33,182.9,75.94,177.51,73.69Z" transform="translate(-5.49 -3.85)" fill="url(#linear-gradient-7)"/><path d="M179.43,73.76a2.13,2.13,0,0,1,.43.59c1.16,2.2.49,5,2,7.07A5.27,5.27,0,0,0,185,83.31a6.47,6.47,0,0,0,7-2.85c1.32-2.36.73-5.27,2.23-7.58.76-1.17,1.75-2.16,2.6-3.26,4.17-5.4,4.16-13.3,3.53-19.77-.38-3.83-1.59-8-4.61-10.34s-7.07-2.62-10.82-2.15a13.3,13.3,0,0,0-4.44,1.2A11.3,11.3,0,0,0,175.08,46a33.57,33.57,0,0,0-.56,9.45l.24,6.89a24.79,24.79,0,0,0,.88,6.82,7.48,7.48,0,0,0,1.71,3C178,72.85,178.83,73.17,179.43,73.76Z" transform="translate(-5.49 -3.85)" fill="#f3bd8f"/><path d="M171.35,39.2a16.65,16.65,0,0,0-.72,4.82,15.26,15.26,0,0,0,.52,5.39c.34,1,.87,2,1.22,3,.82,2.39.84,5.36,2.88,6.85a43.3,43.3,0,0,1,1.61-12.55A8.34,8.34,0,0,0,184,48.5c1.67-.36,3.18-1.23,4.8-1.75a5.54,5.54,0,0,1,4.92.33c.79.57,1.42,1.51,2.39,1.58a5.69,5.69,0,0,1,1.43,0c.66.23.87,1,1,1.74l1.26,7.63a1.54,1.54,0,0,0,.82-.77c2-3.25,2-7.3,1.76-11.11a17.51,17.51,0,0,0-1.54-6.83,19.58,19.58,0,0,0-2.45-3.44c-1.51-1.82-3.11-3.71-5.31-4.58a14.16,14.16,0,0,0-5.15-.66,13.79,13.79,0,0,0-4.16.41c-2.7.85-4.53,3.18-7.39,3.6C173.67,35.07,172.23,36.59,171.35,39.2Z" transform="translate(-5.49 -3.85)" fill="#3e3e54"/><path d="M179.43,73.76s8.09,3.32,14.19-1.06c0,0-1.33,9.23-6,9.55s-6.49-2.35-6.49-2.35S181.51,75.32,179.43,73.76Z" transform="translate(-5.49 -3.85)" fill="url(#linear-gradient-8)"/><path d="M162.18,136.78a51.38,51.38,0,0,0-.92,12.87,2.25,2.25,0,0,0,2,2.72,48.94,48.94,0,0,0,9.7,1.49,7.45,7.45,0,0,0,2.9-.26,7.11,7.11,0,0,0,3-2.55,30.42,30.42,0,0,0,4.13-7.22c.49-1.21,1-2.59,2.25-3a4.38,4.38,0,0,1,1.65-.16c2.89.11,6.17.41,7.91,2.71a14.24,14.24,0,0,1,1.57,3.43,12.92,12.92,0,0,0,5.4,6.51,14.74,14.74,0,0,0,8.51,1.54,23.42,23.42,0,0,0,7.75-2,1.81,1.81,0,0,0,1.31-2.53,140.5,140.5,0,0,0-7.47-22.16,12.15,12.15,0,0,0-1.61-2.91c-2.42-3-6.81-3.1-10.62-3-6.09.16-12.19.32-18.26,1a89.63,89.63,0,0,0-9.36,1.44c-3.1.65-4.52,1.08-6.33,3.74A24.86,24.86,0,0,0,162.18,136.78Z" transform="translate(-5.49 -3.85)" fill="#3e3e54"/><path d="M180.7,145.49a10,10,0,0,0,.28,2.68,8.54,8.54,0,0,0,1.78,3,5.77,5.77,0,0,0,1.44,1.35,4.77,4.77,0,0,0,2.35.56A11.24,11.24,0,0,0,194,150a5.61,5.61,0,0,0,1.93-2.8,6.06,6.06,0,0,0-.18-2.8c-.39-1.64-.94-3.23-1.49-4.82a2.51,2.51,0,0,0-.44-.86,2.47,2.47,0,0,0-1.92-.56q-3.84,0-7.67.36a9.06,9.06,0,0,0-2.88.43c-.83.41-.7,1.27-.69,2.08C180.66,142.54,180.68,144,180.7,145.49Z" transform="translate(-5.49 -3.85)" fill="#f3bd8f"/><path d="M192.44,147.76a7.77,7.77,0,0,0,3.23-.79,5.57,5.57,0,0,0,2.48-3.57,16.58,16.58,0,0,0,.31-4.45,2.63,2.63,0,0,0-.3-1.41,2.52,2.52,0,0,0-1.21-.82c-4.27-1.72-13.75-3.34-15.72,2.62C179,146.12,187.7,148.16,192.44,147.76Z" transform="translate(-5.49 -3.85)" fill="url(#linear-gradient-9)"/><path d="M186.63,77.55a11.92,11.92,0,0,0-8.39,6.67l-2.85-2.51a.78.78,0,0,0-.46-.25.8.8,0,0,0-.52.25,13.81,13.81,0,0,0-4.74,10.43,1.55,1.55,0,0,1-.18.93c-.25.37-.76.43-1.2.54-1.77.47-2.82,2.38-3,4.21a35,35,0,0,0,.28,5.5c.09,1.77-.13,3.54.05,5.3a11.84,11.84,0,0,0,6.95,9.43c3.4,1.46,7.28,1.21,10.93.61s7.29-1.54,11-1.36a14.47,14.47,0,0,0,4.83-.1,8.78,8.78,0,0,0,2.51-1.33,15.4,15.4,0,0,0,4.85-5,16.66,16.66,0,0,0,1.59-8.08,19.14,19.14,0,0,0-.94-6.56A38.77,38.77,0,0,1,205.62,92c-.23-1-.26-2-.52-3-.83-3.13-3.95-5.23-7.13-5.83a17.14,17.14,0,0,0-4.58-.18c-1.27.1-3.26.88-4.49.62S185.61,77.75,186.63,77.55Z" transform="translate(-5.49 -3.85)" fill="#3e3e54"/><path d="M172,118.36l.18,3.77a41.73,41.73,0,0,0,1,8.64,13.79,13.79,0,0,0,4.41,7.35,13.33,13.33,0,0,0,5,2.41,19.77,19.77,0,0,0,13-.94,11,11,0,0,0,3.72-2.48c2.13-2.31,2.62-5.69,2.5-8.82s-.78-6.26-.52-9.39a7.3,7.3,0,0,0,0-2,1.91,1.91,0,0,0-1.15-1.51,35.8,35.8,0,0,0,2.17-11.08c.09-2-.1-4.2-1.56-5.56a6.69,6.69,0,0,0-3.39-1.42c-7.82-1.44-15.86,1.27-22.83,5.11a6.69,6.69,0,0,0-3.23,3,6.42,6.42,0,0,0-.32,2.69C171.05,111.24,171.81,115.22,172,118.36Z" transform="translate(-5.49 -3.85)" fill="#f3bd8f"/><path d="M165.13,149.25l.72,15.8.57,12.58c0,.9.09,1.81.13,2.71s.37,1.82-.05,2.63c-1.11,2.1-3.94,3.22-6,4.08a31.72,31.72,0,0,1-6.54,2.22,5.93,5.93,0,0,0-1.49.38,1.6,1.6,0,0,0-1,1.13,1.84,1.84,0,0,0,.67,1.54,6,6,0,0,0,4.61,1.33,45.06,45.06,0,0,0,4.85-.93c4.11-.76,8.49-.16,12.39-1.67a2.51,2.51,0,0,0,1.39-1,2.92,2.92,0,0,0,.26-1.21c.21-3.43.62-6.8.79-10.27l1-19.89L178,146.9S170.22,141.5,165.13,149.25Z" transform="translate(-5.49 -3.85)" fill="#f3bd8f"/><path d="M214.74,147.2l1.59,15.7,1.23,12.18c.15,1.48-.09,3.95.45,5.29.79,1.93,4,2.64,5.89,2.83a24.91,24.91,0,0,0,6.88-.54c1.14-.21,2.44-.4,3.34.32a2.72,2.72,0,0,1,.11,3.64,7.23,7.23,0,0,1-3.39,2.07,55.18,55.18,0,0,1-11.61,2.85,15.8,15.8,0,0,1-5.27,0,6.51,6.51,0,0,1-4.3-2.82c-1.2-2-.66-4.22-1-6.39-.17-1.15-.46-2.3-.68-3.44l-6.38-32.15S208.58,140.27,214.74,147.2Z" transform="translate(-5.49 -3.85)" fill="#f3bd8f"/><path d="M216.26,172.47a3.15,3.15,0,0,0-1.4-.21h-5.37a2.59,2.59,0,0,0-1.73.43,2.49,2.49,0,0,0-.47,2.19,34.35,34.35,0,0,0,1.7,7.36,1.13,1.13,0,0,0,.37.59c1.11.72,4.33-.24,5.52-.59a5,5,0,0,0,2.85-1.68C218.91,178.83,218.2,173.41,216.26,172.47Z" transform="translate(-5.49 -3.85)" fill="#fff"/><path d="M167.83,175.67a3.19,3.19,0,0,1,1.41-.21h5.43a2.62,2.62,0,0,1,1.75.43,2.53,2.53,0,0,1,.48,2.22,35.19,35.19,0,0,1-1.72,7.45,1.15,1.15,0,0,1-.38.6c-1.11.72-4.38-.25-5.58-.61a5,5,0,0,1-2.88-1.69C165.14,182.1,165.86,176.63,167.83,175.67Z" transform="translate(-5.49 -3.85)" fill="#fff"/><path d="M173.3,162.61a4.3,4.3,0,0,1,2.39.19,4.86,4.86,0,0,1,2,2.48c.44.92.81,2.16,0,2.83.21.8.77,1.48,1,2.28s-.18,1.89-1,1.92a3,3,0,0,1,.63,1.71,1.37,1.37,0,0,1-1,1.35c.09.43.07,1-.35,1.12a.81.81,0,0,1-.38,0,44.07,44.07,0,0,0-4.46-1.24,4.05,4.05,0,0,0-4.09,1.56c-.52.89-.63,2.17-1.58,2.58a2.61,2.61,0,0,1-2-.23,2.71,2.71,0,0,1-2.43-2.74,26.63,26.63,0,0,1,0-3.79c.18-2.36.91-5.17,3-6.6A19.39,19.39,0,0,1,173.3,162.61Z" transform="translate(-5.49 -3.85)" fill="#f3bd8f"/><path d="M208.48,161.84a4.24,4.24,0,0,0-2.35.52,4.85,4.85,0,0,0-1.66,2.73c-.31,1-.51,2.26.35,2.82-.1.82-.56,1.57-.65,2.39s.43,1.84,1.26,1.76a3,3,0,0,0-.39,1.78,1.38,1.38,0,0,0,1.22,1.2c0,.43.07,1,.5,1.06a1,1,0,0,0,.37-.08,43,43,0,0,1,4.25-1.85,4.07,4.07,0,0,1,4.27,1c.64.81.92,2.06,1.92,2.34a2.61,2.61,0,0,0,1.9-.5,3.65,3.65,0,0,0,2-1.95,3.44,3.44,0,0,0,.06-1.11,26.23,26.23,0,0,0-.52-3.75c-.5-2.31-1.61-5-3.83-6.12A19.35,19.35,0,0,0,208.48,161.84Z" transform="translate(-5.49 -3.85)" fill="#f3bd8f"/><path d="M165.66,222.46s-10.39,68.47-10.39,69.41S139,362.64,139,362.64l12.84.62,29.43-86.73,6.27-16.28L201,294.38l17.22,71.7h15s-11-76.09-12.52-78S217,230.5,210.37,223.93s-45.67-4.69-45.67-4.69Z" transform="translate(-5.49 -3.85)" fill="#3e3e54"/><path d="M124,370.59a3.8,3.8,0,0,0-1.6,1.75,2.49,2.49,0,0,0,.93,2.56,5.54,5.54,0,0,0,2.66,1c4.32.67,8.68-.61,13-1.44a65.27,65.27,0,0,1,10.15-1.12,3.7,3.7,0,0,0,2.86-.9,3.46,3.46,0,0,0,.55-2.08c.09-1.91.11-3.83.08-5.74a2,2,0,0,0-2.59-2.32c-4.14,0-9-.74-13.05.54C135.12,363.44,124,368.86,124,370.59Z" transform="translate(-5.49 -3.85)" fill="#3e3e54"/><path d="M246.45,372.31a3.8,3.8,0,0,1,1.59,1.76,2.47,2.47,0,0,1-.92,2.55,5.54,5.54,0,0,1-2.66,1c-4.33.67-8.68-.61-13-1.43a62.81,62.81,0,0,0-10.14-1.12,3.66,3.66,0,0,1-2.86-.91,3.45,3.45,0,0,1-.55-2.08c-.09-1.91-.12-3.83-.08-5.74a2.64,2.64,0,0,1,.41-1.67,2.71,2.71,0,0,1,2.18-.65c4.14,0,9-.73,13,.54C235.34,365.17,246.45,370.58,246.45,372.31Z" transform="translate(-5.49 -3.85)" fill="#3e3e54"/><path d="M174.32,183.66c-3.63,1.48-7.8-.55-11.64.24a16.14,16.14,0,0,0-4.21,1.76L152.3,189a4.31,4.31,0,0,0-2,1.63,2.9,2.9,0,0,0,1.18,3.49,7.73,7.73,0,0,0,3.85,1,119.45,119.45,0,0,0,14.41,0,11.76,11.76,0,0,0,3.88-.61,5.94,5.94,0,0,0,3.58-4.49,6,6,0,0,0-2-5.42Z" transform="translate(-5.49 -3.85)" fill="#3e3e54"/><path d="M208.46,182.28c4.25.8,8.33-2.32,12.66-2.31a17.9,17.9,0,0,1,4.94,1l7.42,2.2a4.67,4.67,0,0,1,2.48,1.33,3.19,3.19,0,0,1-.51,4,8.55,8.55,0,0,1-3.94,2,131.26,131.26,0,0,1-15.62,3.14,12.89,12.89,0,0,1-4.33.2,6.59,6.59,0,0,1-4.88-4.07,6.65,6.65,0,0,1,1-6.31Z" transform="translate(-5.49 -3.85)" fill="#3e3e54"/></svg>