<?xml version="1.0" encoding="iso-8859-1"?>
<!-- Generator: Adobe Illustrator 19.0.0, SVG Export Plug-In . SVG Version: 6.00 Build 0)  -->
<svg version="1.1" id="Capa_1" xmlns="http://www.w3.org/2000/svg" xmlns:xlink="http://www.w3.org/1999/xlink" x="0px" y="0px"
	 viewBox="0 0 512.001 512.001" style="enable-background:new 0 0 512.001 512.001;" xml:space="preserve">
<path style="fill:#40A077;" d="M371.996,400.005V119.014h0.49L262.237,2.571C261.024,1.29,259,0.524,258,0.173v0.021
	c-1-0.266-2.541-0.255-3.747,0.011l-0.063,0.008c-1.595,0.351-3.12,1.075-4.333,2.356L139.514,119.014h0.49v280.991h-0.49
	l110.529,109.417c1.2,1.187,2.668,2.005,4.207,2.328c1.154,0.243,2.347,0.277,3.5,0.035c1.538-0.323,3.005-1.193,4.205-2.378
	l110.531-109.401h-0.49V400.005z"/>
<rect x="139.516" y="119.187" style="fill:#33896A;" width="232.972" height="281.091"/>
<rect x="139.516" y="119.187" style="fill:#49BC6E;" width="60.957" height="281.091"/>
<rect x="200.473" y="119.187" style="fill:#40A077;" width="111.056" height="281.091"/>
<path style="fill:#49BC6E;" d="M311.529,119.189L257.831,0.217c-1.206-0.266-2.456-0.266-3.662,0L200.47,119.189H311.529z"/>
<path style="fill:#40A077;" d="M311.529,119.189h60.957L262.153,2.659c-1.213-1.281-2.727-2.091-4.322-2.442L311.529,119.189z"/>
<path style="fill:#69D189;" d="M249.847,2.659l-110.333,116.53h60.957L254.169,0.217C252.574,0.568,251.06,1.378,249.847,2.659z"/>
<path style="fill:#33896A;" d="M200.471,400.28l53.779,111.539c1.154,0.243,2.347,0.243,3.5,0l53.779-111.539H200.471z"/>
<path style="fill:#2C7A62;" d="M261.955,509.56l110.531-109.281H311.53l-53.779,111.539
	C259.289,511.495,260.755,510.746,261.955,509.56z"/>
<path style="fill:#40A077;" d="M139.514,400.28l110.529,109.279c1.2,1.187,2.668,1.936,4.207,2.26L200.47,400.28H139.514
	L139.514,400.28z"/>
<g>
</g>
<g>
</g>
<g>
</g>
<g>
</g>
<g>
</g>
<g>
</g>
<g>
</g>
<g>
</g>
<g>
</g>
<g>
</g>
<g>
</g>
<g>
</g>
<g>
</g>
<g>
</g>
<g>
</g>
</svg>
